<mxfile host="app.diagrams.net" modified="2023-05-19T16:56:46.075Z" agent="Mozilla/5.0 (Windows NT 10.0; Win64; x64) AppleWebKit/537.36 (KHTML, like Gecko) Chrome/113.0.0.0 Safari/537.36" etag="Hih7uf9EmEZG9_9KpqWL" version="21.3.2" type="device">
  <diagram name="Page-1" id="vacLY8KYambWkVxWyL4i">
    <mxGraphModel dx="1467" dy="1812" grid="0" gridSize="10" guides="1" tooltips="1" connect="1" arrows="1" fold="1" page="1" pageScale="1" pageWidth="850" pageHeight="1100" math="0" shadow="0">
      <root>
        <mxCell id="0" />
        <mxCell id="1" parent="0" />
        <mxCell id="04F4Gd6JQY2uG3pJHQZS-1" value="&lt;b&gt;&lt;font style=&quot;font-size: 15px;&quot;&gt;DIO_setPinVal&lt;/font&gt;&lt;/b&gt;" style="rounded=0;whiteSpace=wrap;html=1;strokeColor=#FFFFFF;" vertex="1" parent="1">
          <mxGeometry x="598" y="-1089" width="110" height="37" as="geometry" />
        </mxCell>
        <mxCell id="04F4Gd6JQY2uG3pJHQZS-2" value="&lt;font style=&quot;font-size: 14px;&quot;&gt;Port &amp;amp; Pin Check&lt;/font&gt;" style="swimlane;whiteSpace=wrap;html=1;rounded=1;fontSize=16;fontFamily=Calibri;fillColor=#ffe6cc;strokeColor=#d79b00;" vertex="1" parent="1">
          <mxGeometry x="1091" y="-499" width="313" height="382" as="geometry">
            <mxRectangle x="-207" y="152.5" width="134" height="31" as="alternateBounds" />
          </mxGeometry>
        </mxCell>
        <mxCell id="04F4Gd6JQY2uG3pJHQZS-3" value="No" style="edgeStyle=orthogonalEdgeStyle;rounded=0;orthogonalLoop=1;jettySize=auto;html=1;" edge="1" parent="04F4Gd6JQY2uG3pJHQZS-2" source="04F4Gd6JQY2uG3pJHQZS-5" target="04F4Gd6JQY2uG3pJHQZS-9">
          <mxGeometry relative="1" as="geometry" />
        </mxCell>
        <mxCell id="04F4Gd6JQY2uG3pJHQZS-4" value="Yes" style="edgeStyle=orthogonalEdgeStyle;rounded=0;orthogonalLoop=1;jettySize=auto;html=1;" edge="1" parent="04F4Gd6JQY2uG3pJHQZS-2" source="04F4Gd6JQY2uG3pJHQZS-5" target="04F4Gd6JQY2uG3pJHQZS-10">
          <mxGeometry relative="1" as="geometry">
            <mxPoint x="117" y="323" as="targetPoint" />
          </mxGeometry>
        </mxCell>
        <mxCell id="04F4Gd6JQY2uG3pJHQZS-5" value="&lt;font style=&quot;font-size: 11.29px;&quot; face=&quot;Calibri&quot;&gt;0&amp;lt;=pin&amp;lt;8?&lt;/font&gt;" style="rhombus;whiteSpace=wrap;html=1;fontSize=11.29;fillColor=#fff2cc;strokeColor=#d6b656;" vertex="1" parent="04F4Gd6JQY2uG3pJHQZS-2">
          <mxGeometry x="77" y="215" width="80" height="80" as="geometry" />
        </mxCell>
        <mxCell id="04F4Gd6JQY2uG3pJHQZS-6" value="Yes" style="edgeStyle=orthogonalEdgeStyle;rounded=0;orthogonalLoop=1;jettySize=auto;html=1;" edge="1" parent="04F4Gd6JQY2uG3pJHQZS-2" source="04F4Gd6JQY2uG3pJHQZS-8" target="04F4Gd6JQY2uG3pJHQZS-5">
          <mxGeometry relative="1" as="geometry" />
        </mxCell>
        <mxCell id="04F4Gd6JQY2uG3pJHQZS-7" value="No" style="edgeStyle=orthogonalEdgeStyle;rounded=0;orthogonalLoop=1;jettySize=auto;html=1;exitX=1;exitY=0.5;exitDx=0;exitDy=0;" edge="1" parent="04F4Gd6JQY2uG3pJHQZS-2" source="04F4Gd6JQY2uG3pJHQZS-8" target="04F4Gd6JQY2uG3pJHQZS-9">
          <mxGeometry relative="1" as="geometry" />
        </mxCell>
        <mxCell id="04F4Gd6JQY2uG3pJHQZS-8" value="&lt;font style=&quot;font-size: 11.29px;&quot; face=&quot;Calibri&quot;&gt;0&amp;lt;=port&amp;lt;4?&lt;/font&gt;" style="rhombus;whiteSpace=wrap;html=1;fontSize=11.29;fillColor=#fff2cc;strokeColor=#d6b656;" vertex="1" parent="04F4Gd6JQY2uG3pJHQZS-2">
          <mxGeometry x="77" y="98" width="80" height="80" as="geometry" />
        </mxCell>
        <mxCell id="04F4Gd6JQY2uG3pJHQZS-9" value="&lt;font style=&quot;font-size: 11.29px;&quot;&gt;&lt;font face=&quot;Calibri&quot;&gt;Check Failed&lt;/font&gt;&lt;br&gt;&lt;/font&gt;" style="html=1;dashed=0;whiteSpace=wrap;shape=mxgraph.dfd.start;fillColor=#f8cecc;strokeColor=#b85450;" vertex="1" parent="04F4Gd6JQY2uG3pJHQZS-2">
          <mxGeometry x="198" y="181" width="83.5" height="30" as="geometry" />
        </mxCell>
        <mxCell id="04F4Gd6JQY2uG3pJHQZS-10" value="&lt;font style=&quot;font-size: 11.29px;&quot;&gt;&lt;font face=&quot;Calibri&quot;&gt;Check&amp;nbsp;&lt;/font&gt;Passed&lt;br&gt;&lt;/font&gt;" style="html=1;dashed=0;whiteSpace=wrap;shape=mxgraph.dfd.start;fillColor=#d5e8d4;strokeColor=#82b366;" vertex="1" parent="04F4Gd6JQY2uG3pJHQZS-2">
          <mxGeometry x="73" y="337" width="88" height="30" as="geometry" />
        </mxCell>
        <mxCell id="04F4Gd6JQY2uG3pJHQZS-11" style="edgeStyle=orthogonalEdgeStyle;rounded=0;orthogonalLoop=1;jettySize=auto;html=1;exitX=0.5;exitY=0.5;exitDx=0;exitDy=15.000000000000002;exitPerimeter=0;entryX=0.5;entryY=0;entryDx=0;entryDy=0;" edge="1" parent="04F4Gd6JQY2uG3pJHQZS-2" source="04F4Gd6JQY2uG3pJHQZS-12" target="04F4Gd6JQY2uG3pJHQZS-8">
          <mxGeometry relative="1" as="geometry" />
        </mxCell>
        <mxCell id="04F4Gd6JQY2uG3pJHQZS-12" value="&lt;font face=&quot;Calibri&quot; style=&quot;font-size: 11.29px;&quot;&gt;Start&lt;/font&gt;" style="html=1;dashed=0;whiteSpace=wrap;shape=mxgraph.dfd.start;fillColor=#dae8fc;strokeColor=#6c8ebf;" vertex="1" parent="04F4Gd6JQY2uG3pJHQZS-2">
          <mxGeometry x="77" y="45" width="80" height="30" as="geometry" />
        </mxCell>
        <mxCell id="04F4Gd6JQY2uG3pJHQZS-13" style="edgeStyle=orthogonalEdgeStyle;rounded=0;orthogonalLoop=1;jettySize=auto;html=1;exitX=0.5;exitY=1;exitDx=0;exitDy=0;entryX=0.5;entryY=0;entryDx=0;entryDy=0;" edge="1" parent="1" source="04F4Gd6JQY2uG3pJHQZS-14" target="04F4Gd6JQY2uG3pJHQZS-20">
          <mxGeometry relative="1" as="geometry" />
        </mxCell>
        <mxCell id="04F4Gd6JQY2uG3pJHQZS-14" value="&lt;font face=&quot;Calibri&quot;&gt;Get port, pin&lt;br style=&quot;font-size: 11.29px;&quot;&gt;&amp;amp; (&amp;amp;Val)&lt;/font&gt;" style="shape=parallelogram;perimeter=parallelogramPerimeter;whiteSpace=wrap;html=1;fixedSize=1;fontSize=11.29;fillColor=#d5e8d4;strokeColor=#82b366;size=0;" vertex="1" parent="1">
          <mxGeometry x="978" y="-964.5" width="110" height="40" as="geometry" />
        </mxCell>
        <mxCell id="04F4Gd6JQY2uG3pJHQZS-15" value="" style="edgeStyle=orthogonalEdgeStyle;rounded=0;orthogonalLoop=1;jettySize=auto;html=1;" edge="1" parent="1" source="04F4Gd6JQY2uG3pJHQZS-16" target="04F4Gd6JQY2uG3pJHQZS-14">
          <mxGeometry relative="1" as="geometry" />
        </mxCell>
        <mxCell id="04F4Gd6JQY2uG3pJHQZS-16" value="&lt;font face=&quot;Calibri&quot; style=&quot;font-size: 11.29px;&quot;&gt;Start&lt;/font&gt;" style="html=1;dashed=0;whiteSpace=wrap;shape=mxgraph.dfd.start;fillColor=#dae8fc;strokeColor=#6c8ebf;" vertex="1" parent="1">
          <mxGeometry x="993" y="-1023.5" width="80" height="30" as="geometry" />
        </mxCell>
        <mxCell id="04F4Gd6JQY2uG3pJHQZS-17" value="&lt;b&gt;&lt;font style=&quot;font-size: 15px;&quot;&gt;DIO_getPinVal&lt;/font&gt;&lt;/b&gt;" style="rounded=0;whiteSpace=wrap;html=1;strokeColor=#FFFFFF;" vertex="1" parent="1">
          <mxGeometry x="977" y="-1090" width="110" height="37" as="geometry" />
        </mxCell>
        <mxCell id="04F4Gd6JQY2uG3pJHQZS-18" value="Fail" style="edgeStyle=orthogonalEdgeStyle;rounded=1;orthogonalLoop=1;jettySize=auto;html=1;exitX=1;exitY=0.5;exitDx=0;exitDy=0;entryX=0.5;entryY=0.5;entryDx=0;entryDy=-15;entryPerimeter=0;" edge="1" parent="1" source="04F4Gd6JQY2uG3pJHQZS-20" target="04F4Gd6JQY2uG3pJHQZS-24">
          <mxGeometry x="-0.3462" relative="1" as="geometry">
            <mxPoint as="offset" />
          </mxGeometry>
        </mxCell>
        <mxCell id="04F4Gd6JQY2uG3pJHQZS-19" value="Pass" style="edgeStyle=orthogonalEdgeStyle;rounded=0;orthogonalLoop=1;jettySize=auto;html=1;" edge="1" parent="1" source="04F4Gd6JQY2uG3pJHQZS-20" target="04F4Gd6JQY2uG3pJHQZS-41">
          <mxGeometry relative="1" as="geometry" />
        </mxCell>
        <mxCell id="04F4Gd6JQY2uG3pJHQZS-20" value="&lt;span style=&quot;font-size: 11.29px;&quot;&gt;Port &amp;amp; Pin Check&lt;/span&gt;" style="shape=process;whiteSpace=wrap;html=1;backgroundOutline=1;fontSize=11.29;fillColor=#ffe6cc;strokeColor=#d79b00;fontFamily=Calibri;" vertex="1" parent="1">
          <mxGeometry x="975" y="-896.5" width="116" height="46" as="geometry" />
        </mxCell>
        <mxCell id="04F4Gd6JQY2uG3pJHQZS-21" value="&lt;font style=&quot;font-size: 11.29px;&quot;&gt;&lt;font face=&quot;Calibri&quot;&gt;return&lt;br&gt;DIO_OK&lt;/font&gt;&lt;br&gt;&lt;/font&gt;" style="html=1;dashed=0;whiteSpace=wrap;shape=mxgraph.dfd.start;fillColor=#d5e8d4;strokeColor=#82b366;" vertex="1" parent="1">
          <mxGeometry x="993" y="-627" width="80" height="30" as="geometry" />
        </mxCell>
        <mxCell id="04F4Gd6JQY2uG3pJHQZS-22" value="" style="edgeStyle=orthogonalEdgeStyle;rounded=0;orthogonalLoop=1;jettySize=auto;html=1;" edge="1" parent="1" source="04F4Gd6JQY2uG3pJHQZS-23" target="04F4Gd6JQY2uG3pJHQZS-21">
          <mxGeometry relative="1" as="geometry" />
        </mxCell>
        <mxCell id="04F4Gd6JQY2uG3pJHQZS-23" value="&lt;font style=&quot;font-size: 11.29px;&quot; face=&quot;Calibri&quot;&gt;&amp;amp;val = &lt;br&gt;GetBit(PortBase-&amp;gt;port, pin)&lt;/font&gt;" style="shape=parallelogram;perimeter=parallelogramPerimeter;rounded=0;whiteSpace=wrap;html=1;fontSize=11.29;fillColor=#e1d5e7;strokeColor=#9673a6;" vertex="1" parent="1">
          <mxGeometry x="937.5" y="-699" width="189" height="39" as="geometry" />
        </mxCell>
        <mxCell id="04F4Gd6JQY2uG3pJHQZS-24" value="&lt;font style=&quot;font-size: 11.29px;&quot;&gt;&lt;font face=&quot;Calibri&quot;&gt;return&lt;br&gt;DIO_ERROR&lt;/font&gt;&lt;br&gt;&lt;/font&gt;" style="html=1;dashed=0;whiteSpace=wrap;shape=mxgraph.dfd.start;fillColor=#f8cecc;strokeColor=#b85450;" vertex="1" parent="1">
          <mxGeometry x="1115" y="-786.5" width="83.5" height="30" as="geometry" />
        </mxCell>
        <mxCell id="04F4Gd6JQY2uG3pJHQZS-25" style="edgeStyle=orthogonalEdgeStyle;rounded=0;orthogonalLoop=1;jettySize=auto;html=1;exitX=0.5;exitY=1;exitDx=0;exitDy=0;entryX=0.5;entryY=0;entryDx=0;entryDy=0;" edge="1" parent="1" source="04F4Gd6JQY2uG3pJHQZS-26" target="04F4Gd6JQY2uG3pJHQZS-32">
          <mxGeometry relative="1" as="geometry" />
        </mxCell>
        <mxCell id="04F4Gd6JQY2uG3pJHQZS-26" value="&lt;font face=&quot;Calibri&quot;&gt;Get port, pin&lt;br style=&quot;font-size: 11.29px;&quot;&gt;&amp;amp; pinDir&lt;/font&gt;" style="shape=parallelogram;perimeter=parallelogramPerimeter;whiteSpace=wrap;html=1;fixedSize=1;fontSize=11.29;fillColor=#d5e8d4;strokeColor=#82b366;size=0;" vertex="1" parent="1">
          <mxGeometry x="28" y="-997" width="110" height="40" as="geometry" />
        </mxCell>
        <mxCell id="04F4Gd6JQY2uG3pJHQZS-27" value="" style="edgeStyle=orthogonalEdgeStyle;rounded=0;orthogonalLoop=1;jettySize=auto;html=1;" edge="1" parent="1" source="04F4Gd6JQY2uG3pJHQZS-28" target="04F4Gd6JQY2uG3pJHQZS-26">
          <mxGeometry relative="1" as="geometry" />
        </mxCell>
        <mxCell id="04F4Gd6JQY2uG3pJHQZS-28" value="&lt;font face=&quot;Calibri&quot; style=&quot;font-size: 11.29px;&quot;&gt;Start&lt;/font&gt;" style="html=1;dashed=0;whiteSpace=wrap;shape=mxgraph.dfd.start;fillColor=#dae8fc;strokeColor=#6c8ebf;" vertex="1" parent="1">
          <mxGeometry x="43" y="-1056" width="80" height="30" as="geometry" />
        </mxCell>
        <mxCell id="04F4Gd6JQY2uG3pJHQZS-29" value="&lt;b&gt;&lt;font style=&quot;font-size: 15px;&quot;&gt;DIO_setPinDir&lt;/font&gt;&lt;/b&gt;" style="rounded=0;whiteSpace=wrap;html=1;strokeColor=#FFFFFF;" vertex="1" parent="1">
          <mxGeometry x="171" y="-1090" width="110" height="37" as="geometry" />
        </mxCell>
        <mxCell id="04F4Gd6JQY2uG3pJHQZS-30" value="Pass" style="edgeStyle=orthogonalEdgeStyle;rounded=0;orthogonalLoop=1;jettySize=auto;html=1;" edge="1" parent="1" source="04F4Gd6JQY2uG3pJHQZS-32" target="04F4Gd6JQY2uG3pJHQZS-36">
          <mxGeometry relative="1" as="geometry" />
        </mxCell>
        <mxCell id="04F4Gd6JQY2uG3pJHQZS-31" value="Fail" style="edgeStyle=orthogonalEdgeStyle;rounded=0;orthogonalLoop=1;jettySize=auto;html=1;" edge="1" parent="1" source="04F4Gd6JQY2uG3pJHQZS-32" target="04F4Gd6JQY2uG3pJHQZS-33">
          <mxGeometry relative="1" as="geometry" />
        </mxCell>
        <mxCell id="04F4Gd6JQY2uG3pJHQZS-32" value="&lt;font style=&quot;font-size: 11.29px;&quot;&gt;Port &amp;amp; Pin Check&lt;/font&gt;" style="shape=process;whiteSpace=wrap;html=1;backgroundOutline=1;fontSize=11.29;fillColor=#ffe6cc;strokeColor=#d79b00;fontFamily=Calibri;" vertex="1" parent="1">
          <mxGeometry x="25" y="-929" width="116" height="46" as="geometry" />
        </mxCell>
        <mxCell id="04F4Gd6JQY2uG3pJHQZS-33" value="&lt;font style=&quot;font-size: 11.29px;&quot;&gt;&lt;font face=&quot;Calibri&quot;&gt;return&lt;br&gt;DIO_ERROR&lt;/font&gt;&lt;br&gt;&lt;/font&gt;" style="html=1;dashed=0;whiteSpace=wrap;shape=mxgraph.dfd.start;fillColor=#f8cecc;strokeColor=#b85450;" vertex="1" parent="1">
          <mxGeometry x="215" y="-922" width="83.5" height="30" as="geometry" />
        </mxCell>
        <mxCell id="04F4Gd6JQY2uG3pJHQZS-34" value="No" style="edgeStyle=orthogonalEdgeStyle;rounded=0;orthogonalLoop=1;jettySize=auto;html=1;exitX=0.5;exitY=1;exitDx=0;exitDy=0;entryX=0.5;entryY=0;entryDx=0;entryDy=0;" edge="1" parent="1" source="04F4Gd6JQY2uG3pJHQZS-36" target="04F4Gd6JQY2uG3pJHQZS-86">
          <mxGeometry relative="1" as="geometry" />
        </mxCell>
        <mxCell id="04F4Gd6JQY2uG3pJHQZS-35" value="Yes" style="edgeStyle=orthogonalEdgeStyle;rounded=0;orthogonalLoop=1;jettySize=auto;html=1;" edge="1" parent="1" source="04F4Gd6JQY2uG3pJHQZS-36" target="04F4Gd6JQY2uG3pJHQZS-38">
          <mxGeometry relative="1" as="geometry" />
        </mxCell>
        <mxCell id="04F4Gd6JQY2uG3pJHQZS-36" value="&lt;font face=&quot;Calibri&quot;&gt;pinDir =&amp;nbsp;&lt;br style=&quot;font-size: 11.29px;&quot;&gt;in?&lt;/font&gt;" style="rhombus;whiteSpace=wrap;html=1;fontSize=11.29;fillColor=#fff2cc;strokeColor=#d6b656;" vertex="1" parent="1">
          <mxGeometry x="43" y="-844.5" width="80" height="80" as="geometry" />
        </mxCell>
        <mxCell id="04F4Gd6JQY2uG3pJHQZS-37" style="edgeStyle=orthogonalEdgeStyle;rounded=1;orthogonalLoop=1;jettySize=auto;html=1;exitX=1;exitY=0.5;exitDx=0;exitDy=0;entryX=0.5;entryY=0.5;entryDx=0;entryDy=-15;entryPerimeter=0;" edge="1" parent="1" source="04F4Gd6JQY2uG3pJHQZS-38" target="04F4Gd6JQY2uG3pJHQZS-89">
          <mxGeometry relative="1" as="geometry" />
        </mxCell>
        <mxCell id="04F4Gd6JQY2uG3pJHQZS-38" value="&lt;font style=&quot;font-size: 11.29px;&quot; face=&quot;Calibri&quot;&gt;ClrBit&lt;br&gt;(PortBase-&amp;gt;ddr, pin)&lt;/font&gt;" style="shape=parallelogram;perimeter=parallelogramPerimeter;rounded=0;whiteSpace=wrap;html=1;fontSize=11.29;fillColor=#d5e8d4;strokeColor=#82b366;size=0;" vertex="1" parent="1">
          <mxGeometry x="172" y="-823.5" width="129" height="39" as="geometry" />
        </mxCell>
        <mxCell id="04F4Gd6JQY2uG3pJHQZS-39" value="Yes" style="edgeStyle=orthogonalEdgeStyle;rounded=0;orthogonalLoop=1;jettySize=auto;html=1;exitX=0.5;exitY=1;exitDx=0;exitDy=0;entryX=0.5;entryY=0;entryDx=0;entryDy=0;" edge="1" parent="1" source="04F4Gd6JQY2uG3pJHQZS-41">
          <mxGeometry relative="1" as="geometry">
            <mxPoint x="1033" y="-698.5" as="targetPoint" />
          </mxGeometry>
        </mxCell>
        <mxCell id="04F4Gd6JQY2uG3pJHQZS-40" value="No" style="edgeStyle=orthogonalEdgeStyle;rounded=0;orthogonalLoop=1;jettySize=auto;html=1;" edge="1" parent="1" source="04F4Gd6JQY2uG3pJHQZS-41" target="04F4Gd6JQY2uG3pJHQZS-24">
          <mxGeometry relative="1" as="geometry" />
        </mxCell>
        <mxCell id="04F4Gd6JQY2uG3pJHQZS-41" value="&lt;font face=&quot;Calibri&quot;&gt;&amp;amp;Val =&amp;nbsp;&lt;br style=&quot;font-size: 11.29px;&quot;&gt;NULL?&lt;br&gt;&lt;/font&gt;" style="rhombus;whiteSpace=wrap;html=1;fontSize=11.29;fillColor=#fff2cc;strokeColor=#d6b656;" vertex="1" parent="1">
          <mxGeometry x="993" y="-811.5" width="80" height="80" as="geometry" />
        </mxCell>
        <mxCell id="04F4Gd6JQY2uG3pJHQZS-42" style="edgeStyle=orthogonalEdgeStyle;rounded=0;orthogonalLoop=1;jettySize=auto;html=1;exitX=0.5;exitY=1;exitDx=0;exitDy=0;entryX=0.5;entryY=0;entryDx=0;entryDy=0;" edge="1" parent="1" source="04F4Gd6JQY2uG3pJHQZS-43" target="04F4Gd6JQY2uG3pJHQZS-49">
          <mxGeometry relative="1" as="geometry" />
        </mxCell>
        <mxCell id="04F4Gd6JQY2uG3pJHQZS-43" value="&lt;font face=&quot;Calibri&quot;&gt;Get port and pin&lt;br&gt;&lt;/font&gt;" style="shape=parallelogram;perimeter=parallelogramPerimeter;whiteSpace=wrap;html=1;fixedSize=1;fontSize=11.29;fillColor=#d5e8d4;strokeColor=#82b366;size=0;" vertex="1" parent="1">
          <mxGeometry x="1355.5" y="-941.5" width="110" height="40" as="geometry" />
        </mxCell>
        <mxCell id="04F4Gd6JQY2uG3pJHQZS-44" value="" style="edgeStyle=orthogonalEdgeStyle;rounded=0;orthogonalLoop=1;jettySize=auto;html=1;" edge="1" parent="1" source="04F4Gd6JQY2uG3pJHQZS-45" target="04F4Gd6JQY2uG3pJHQZS-43">
          <mxGeometry relative="1" as="geometry" />
        </mxCell>
        <mxCell id="04F4Gd6JQY2uG3pJHQZS-45" value="&lt;font face=&quot;Calibri&quot; style=&quot;font-size: 11.29px;&quot;&gt;Start&lt;/font&gt;" style="html=1;dashed=0;whiteSpace=wrap;shape=mxgraph.dfd.start;fillColor=#dae8fc;strokeColor=#6c8ebf;" vertex="1" parent="1">
          <mxGeometry x="1370.5" y="-1000.5" width="80" height="30" as="geometry" />
        </mxCell>
        <mxCell id="04F4Gd6JQY2uG3pJHQZS-46" value="&lt;b&gt;&lt;font style=&quot;font-size: 15px;&quot;&gt;DIO_togPinVal&lt;/font&gt;&lt;/b&gt;" style="rounded=0;whiteSpace=wrap;html=1;strokeColor=#FFFFFF;" vertex="1" parent="1">
          <mxGeometry x="1352.5" y="-1083" width="110" height="37" as="geometry" />
        </mxCell>
        <mxCell id="04F4Gd6JQY2uG3pJHQZS-47" value="Fail" style="edgeStyle=orthogonalEdgeStyle;rounded=1;orthogonalLoop=1;jettySize=auto;html=1;exitX=1;exitY=0.5;exitDx=0;exitDy=0;entryX=0.5;entryY=0.5;entryDx=0;entryDy=-15;entryPerimeter=0;" edge="1" parent="1" source="04F4Gd6JQY2uG3pJHQZS-49" target="04F4Gd6JQY2uG3pJHQZS-55">
          <mxGeometry x="-0.3462" relative="1" as="geometry">
            <mxPoint as="offset" />
          </mxGeometry>
        </mxCell>
        <mxCell id="04F4Gd6JQY2uG3pJHQZS-48" value="Pass" style="edgeStyle=orthogonalEdgeStyle;rounded=0;orthogonalLoop=1;jettySize=auto;html=1;exitX=0.5;exitY=1;exitDx=0;exitDy=0;entryX=0.5;entryY=0;entryDx=0;entryDy=0;" edge="1" parent="1" source="04F4Gd6JQY2uG3pJHQZS-49" target="04F4Gd6JQY2uG3pJHQZS-51">
          <mxGeometry relative="1" as="geometry" />
        </mxCell>
        <mxCell id="04F4Gd6JQY2uG3pJHQZS-49" value="&lt;font style=&quot;font-size: 11.29px;&quot;&gt;Port &amp;amp; Pin Check&lt;/font&gt;" style="shape=process;whiteSpace=wrap;html=1;backgroundOutline=1;fontSize=11.29;fillColor=#ffe6cc;strokeColor=#d79b00;fontFamily=Calibri;" vertex="1" parent="1">
          <mxGeometry x="1352.5" y="-873.5" width="116" height="46" as="geometry" />
        </mxCell>
        <mxCell id="04F4Gd6JQY2uG3pJHQZS-50" value="" style="edgeStyle=orthogonalEdgeStyle;rounded=0;orthogonalLoop=1;jettySize=auto;html=1;" edge="1" parent="1" source="04F4Gd6JQY2uG3pJHQZS-51" target="04F4Gd6JQY2uG3pJHQZS-54">
          <mxGeometry relative="1" as="geometry" />
        </mxCell>
        <mxCell id="04F4Gd6JQY2uG3pJHQZS-51" value="&lt;font style=&quot;font-size: 11.29px;&quot; face=&quot;Calibri&quot;&gt;Get port base address&lt;/font&gt;" style="rounded=0;whiteSpace=wrap;html=1;fontSize=11.29;fillColor=#d5e8d4;strokeColor=#82b366;" vertex="1" parent="1">
          <mxGeometry x="1360.5" y="-788.5" width="100" height="39" as="geometry" />
        </mxCell>
        <mxCell id="04F4Gd6JQY2uG3pJHQZS-52" value="&lt;font style=&quot;font-size: 11.29px;&quot;&gt;&lt;font face=&quot;Calibri&quot;&gt;return&lt;br&gt;DIO_OK&lt;/font&gt;&lt;br&gt;&lt;/font&gt;" style="html=1;dashed=0;whiteSpace=wrap;shape=mxgraph.dfd.start;fillColor=#d5e8d4;strokeColor=#82b366;" vertex="1" parent="1">
          <mxGeometry x="1370.5" y="-627" width="80" height="30" as="geometry" />
        </mxCell>
        <mxCell id="04F4Gd6JQY2uG3pJHQZS-53" value="" style="edgeStyle=orthogonalEdgeStyle;rounded=0;orthogonalLoop=1;jettySize=auto;html=1;" edge="1" parent="1" source="04F4Gd6JQY2uG3pJHQZS-54" target="04F4Gd6JQY2uG3pJHQZS-52">
          <mxGeometry relative="1" as="geometry" />
        </mxCell>
        <mxCell id="04F4Gd6JQY2uG3pJHQZS-54" value="&lt;font style=&quot;font-size: 11.29px;&quot; face=&quot;Calibri&quot;&gt;TogBit(PortBase-&amp;gt;port, pin)&lt;/font&gt;" style="shape=parallelogram;perimeter=parallelogramPerimeter;rounded=0;whiteSpace=wrap;html=1;fontSize=11.29;fillColor=#e1d5e7;strokeColor=#9673a6;" vertex="1" parent="1">
          <mxGeometry x="1325" y="-706" width="171" height="39" as="geometry" />
        </mxCell>
        <mxCell id="04F4Gd6JQY2uG3pJHQZS-55" value="&lt;font style=&quot;font-size: 11.29px;&quot;&gt;&lt;font face=&quot;Calibri&quot;&gt;return&lt;br&gt;DIO_ERROR&lt;/font&gt;&lt;br&gt;&lt;/font&gt;" style="html=1;dashed=0;whiteSpace=wrap;shape=mxgraph.dfd.start;fillColor=#f8cecc;strokeColor=#b85450;" vertex="1" parent="1">
          <mxGeometry x="1493" y="-786.5" width="83.5" height="30" as="geometry" />
        </mxCell>
        <mxCell id="04F4Gd6JQY2uG3pJHQZS-56" value="Yes" style="edgeStyle=orthogonalEdgeStyle;rounded=0;orthogonalLoop=1;jettySize=auto;html=1;fontSize=11.29;" edge="1" parent="1" source="04F4Gd6JQY2uG3pJHQZS-58" target="04F4Gd6JQY2uG3pJHQZS-60">
          <mxGeometry relative="1" as="geometry" />
        </mxCell>
        <mxCell id="04F4Gd6JQY2uG3pJHQZS-57" value="No" style="edgeStyle=orthogonalEdgeStyle;rounded=0;orthogonalLoop=1;jettySize=auto;html=1;" edge="1" parent="1" source="04F4Gd6JQY2uG3pJHQZS-58" target="04F4Gd6JQY2uG3pJHQZS-65">
          <mxGeometry relative="1" as="geometry" />
        </mxCell>
        <mxCell id="04F4Gd6JQY2uG3pJHQZS-58" value="&lt;font style=&quot;font-size: 11.29px;&quot; face=&quot;Calibri&quot;&gt;0&amp;lt;=port&amp;lt;4?&lt;/font&gt;" style="rhombus;whiteSpace=wrap;html=1;fontSize=11.29;fillColor=#fff2cc;strokeColor=#d6b656;" vertex="1" parent="1">
          <mxGeometry x="140.75" y="-311" width="80" height="80" as="geometry" />
        </mxCell>
        <mxCell id="04F4Gd6JQY2uG3pJHQZS-59" value="" style="edgeStyle=orthogonalEdgeStyle;rounded=0;orthogonalLoop=1;jettySize=auto;html=1;" edge="1" parent="1" source="04F4Gd6JQY2uG3pJHQZS-60" target="04F4Gd6JQY2uG3pJHQZS-68">
          <mxGeometry relative="1" as="geometry" />
        </mxCell>
        <mxCell id="04F4Gd6JQY2uG3pJHQZS-60" value="&lt;font style=&quot;font-size: 11.29px;&quot; face=&quot;Calibri&quot;&gt;Get port base address&lt;/font&gt;" style="rounded=0;whiteSpace=wrap;html=1;fontSize=11.29;fillColor=#d5e8d4;strokeColor=#82b366;" vertex="1" parent="1">
          <mxGeometry x="130.75" y="-195" width="100" height="39" as="geometry" />
        </mxCell>
        <mxCell id="04F4Gd6JQY2uG3pJHQZS-61" value="" style="edgeStyle=orthogonalEdgeStyle;rounded=0;orthogonalLoop=1;jettySize=auto;html=1;fontSize=11.29;" edge="1" parent="1" source="04F4Gd6JQY2uG3pJHQZS-62" target="04F4Gd6JQY2uG3pJHQZS-58">
          <mxGeometry relative="1" as="geometry" />
        </mxCell>
        <mxCell id="04F4Gd6JQY2uG3pJHQZS-62" value="&lt;font face=&quot;Calibri&quot;&gt;get port and&lt;br style=&quot;font-size: 11.29px;&quot;&gt;portDir&lt;/font&gt;" style="shape=parallelogram;perimeter=parallelogramPerimeter;whiteSpace=wrap;html=1;fixedSize=1;fontSize=11.29;fillColor=#d5e8d4;strokeColor=#82b366;size=-3;" vertex="1" parent="1">
          <mxGeometry x="125.75" y="-380" width="110" height="40" as="geometry" />
        </mxCell>
        <mxCell id="04F4Gd6JQY2uG3pJHQZS-63" value="" style="edgeStyle=orthogonalEdgeStyle;rounded=0;orthogonalLoop=1;jettySize=auto;html=1;" edge="1" parent="1" source="04F4Gd6JQY2uG3pJHQZS-64" target="04F4Gd6JQY2uG3pJHQZS-62">
          <mxGeometry relative="1" as="geometry" />
        </mxCell>
        <mxCell id="04F4Gd6JQY2uG3pJHQZS-64" value="&lt;font face=&quot;Calibri&quot; style=&quot;font-size: 11.29px;&quot;&gt;Start&lt;/font&gt;" style="html=1;dashed=0;whiteSpace=wrap;shape=mxgraph.dfd.start;fillColor=#dae8fc;strokeColor=#6c8ebf;" vertex="1" parent="1">
          <mxGeometry x="140.75" y="-440" width="80" height="30" as="geometry" />
        </mxCell>
        <mxCell id="04F4Gd6JQY2uG3pJHQZS-65" value="&lt;font style=&quot;font-size: 11.29px;&quot;&gt;&lt;font face=&quot;Calibri&quot;&gt;return&lt;br&gt;DIO_ERROR&lt;/font&gt;&lt;br&gt;&lt;/font&gt;" style="html=1;dashed=0;whiteSpace=wrap;shape=mxgraph.dfd.start;fillColor=#f8cecc;strokeColor=#b85450;" vertex="1" parent="1">
          <mxGeometry x="268.75" y="-286" width="83.5" height="30" as="geometry" />
        </mxCell>
        <mxCell id="04F4Gd6JQY2uG3pJHQZS-66" value="&lt;font style=&quot;font-size: 11.29px;&quot;&gt;&lt;font face=&quot;Calibri&quot;&gt;return&lt;br&gt;DIO_OK&lt;/font&gt;&lt;br&gt;&lt;/font&gt;" style="html=1;dashed=0;whiteSpace=wrap;shape=mxgraph.dfd.start;fillColor=#d5e8d4;strokeColor=#82b366;" vertex="1" parent="1">
          <mxGeometry x="140.75" y="-62" width="80" height="30" as="geometry" />
        </mxCell>
        <mxCell id="04F4Gd6JQY2uG3pJHQZS-67" style="edgeStyle=orthogonalEdgeStyle;rounded=0;orthogonalLoop=1;jettySize=auto;html=1;exitX=0.5;exitY=1;exitDx=0;exitDy=0;entryX=0.5;entryY=0.5;entryDx=0;entryDy=-15.000000000000002;entryPerimeter=0;" edge="1" parent="1" source="04F4Gd6JQY2uG3pJHQZS-68" target="04F4Gd6JQY2uG3pJHQZS-66">
          <mxGeometry relative="1" as="geometry" />
        </mxCell>
        <mxCell id="04F4Gd6JQY2uG3pJHQZS-68" value="&lt;font style=&quot;font-size: 11.29px;&quot; face=&quot;Calibri&quot;&gt;PortBase-&amp;gt;ddr= portDir&lt;/font&gt;" style="shape=parallelogram;perimeter=parallelogramPerimeter;rounded=0;whiteSpace=wrap;html=1;fontSize=11.29;fillColor=#d5e8d4;strokeColor=#82b366;size=0;" vertex="1" parent="1">
          <mxGeometry x="126.87" y="-131" width="107.75" height="39" as="geometry" />
        </mxCell>
        <mxCell id="04F4Gd6JQY2uG3pJHQZS-69" value="Yes" style="edgeStyle=orthogonalEdgeStyle;rounded=0;orthogonalLoop=1;jettySize=auto;html=1;fontSize=11.29;" edge="1" parent="1" source="04F4Gd6JQY2uG3pJHQZS-71" target="04F4Gd6JQY2uG3pJHQZS-73">
          <mxGeometry relative="1" as="geometry" />
        </mxCell>
        <mxCell id="04F4Gd6JQY2uG3pJHQZS-70" value="No" style="edgeStyle=orthogonalEdgeStyle;rounded=0;orthogonalLoop=1;jettySize=auto;html=1;" edge="1" parent="1" source="04F4Gd6JQY2uG3pJHQZS-71" target="04F4Gd6JQY2uG3pJHQZS-78">
          <mxGeometry relative="1" as="geometry" />
        </mxCell>
        <mxCell id="04F4Gd6JQY2uG3pJHQZS-71" value="&lt;font style=&quot;font-size: 11.29px;&quot; face=&quot;Calibri&quot;&gt;0&amp;lt;=port&amp;lt;4?&lt;/font&gt;" style="rhombus;whiteSpace=wrap;html=1;fontSize=11.29;fillColor=#fff2cc;strokeColor=#d6b656;" vertex="1" parent="1">
          <mxGeometry x="517.5" y="-306" width="80" height="80" as="geometry" />
        </mxCell>
        <mxCell id="04F4Gd6JQY2uG3pJHQZS-72" value="" style="edgeStyle=orthogonalEdgeStyle;rounded=0;orthogonalLoop=1;jettySize=auto;html=1;" edge="1" parent="1" source="04F4Gd6JQY2uG3pJHQZS-73" target="04F4Gd6JQY2uG3pJHQZS-81">
          <mxGeometry relative="1" as="geometry" />
        </mxCell>
        <mxCell id="04F4Gd6JQY2uG3pJHQZS-73" value="&lt;font style=&quot;font-size: 11.29px;&quot; face=&quot;Calibri&quot;&gt;Get port base address&lt;/font&gt;" style="rounded=0;whiteSpace=wrap;html=1;fontSize=11.29;fillColor=#d5e8d4;strokeColor=#82b366;" vertex="1" parent="1">
          <mxGeometry x="507.5" y="-190" width="100" height="39" as="geometry" />
        </mxCell>
        <mxCell id="04F4Gd6JQY2uG3pJHQZS-74" value="" style="edgeStyle=orthogonalEdgeStyle;rounded=0;orthogonalLoop=1;jettySize=auto;html=1;fontSize=11.29;" edge="1" parent="1" source="04F4Gd6JQY2uG3pJHQZS-75" target="04F4Gd6JQY2uG3pJHQZS-71">
          <mxGeometry relative="1" as="geometry" />
        </mxCell>
        <mxCell id="04F4Gd6JQY2uG3pJHQZS-75" value="&lt;font face=&quot;Calibri&quot;&gt;get port and&lt;br style=&quot;font-size: 11.29px;&quot;&gt;portValue&lt;/font&gt;" style="shape=parallelogram;perimeter=parallelogramPerimeter;whiteSpace=wrap;html=1;fixedSize=1;fontSize=11.29;fillColor=#d5e8d4;strokeColor=#82b366;size=-3;" vertex="1" parent="1">
          <mxGeometry x="502.5" y="-375" width="110" height="40" as="geometry" />
        </mxCell>
        <mxCell id="04F4Gd6JQY2uG3pJHQZS-76" value="" style="edgeStyle=orthogonalEdgeStyle;rounded=0;orthogonalLoop=1;jettySize=auto;html=1;" edge="1" parent="1" source="04F4Gd6JQY2uG3pJHQZS-77" target="04F4Gd6JQY2uG3pJHQZS-75">
          <mxGeometry relative="1" as="geometry" />
        </mxCell>
        <mxCell id="04F4Gd6JQY2uG3pJHQZS-77" value="&lt;font face=&quot;Calibri&quot; style=&quot;font-size: 11.29px;&quot;&gt;Start&lt;/font&gt;" style="html=1;dashed=0;whiteSpace=wrap;shape=mxgraph.dfd.start;fillColor=#dae8fc;strokeColor=#6c8ebf;" vertex="1" parent="1">
          <mxGeometry x="517.5" y="-435" width="80" height="30" as="geometry" />
        </mxCell>
        <mxCell id="04F4Gd6JQY2uG3pJHQZS-78" value="&lt;font style=&quot;font-size: 11.29px;&quot;&gt;&lt;font face=&quot;Calibri&quot;&gt;return&lt;br&gt;DIO_ERROR&lt;/font&gt;&lt;br&gt;&lt;/font&gt;" style="html=1;dashed=0;whiteSpace=wrap;shape=mxgraph.dfd.start;fillColor=#f8cecc;strokeColor=#b85450;" vertex="1" parent="1">
          <mxGeometry x="644.5" y="-281" width="83.5" height="30" as="geometry" />
        </mxCell>
        <mxCell id="04F4Gd6JQY2uG3pJHQZS-79" value="&lt;font style=&quot;font-size: 11.29px;&quot;&gt;&lt;font face=&quot;Calibri&quot;&gt;return&lt;br&gt;DIO_OK&lt;/font&gt;&lt;br&gt;&lt;/font&gt;" style="html=1;dashed=0;whiteSpace=wrap;shape=mxgraph.dfd.start;fillColor=#d5e8d4;strokeColor=#82b366;" vertex="1" parent="1">
          <mxGeometry x="517.5" y="-62" width="80" height="30" as="geometry" />
        </mxCell>
        <mxCell id="04F4Gd6JQY2uG3pJHQZS-80" style="edgeStyle=orthogonalEdgeStyle;rounded=0;orthogonalLoop=1;jettySize=auto;html=1;exitX=0.5;exitY=1;exitDx=0;exitDy=0;entryX=0.5;entryY=0.5;entryDx=0;entryDy=-15.000000000000002;entryPerimeter=0;" edge="1" parent="1" source="04F4Gd6JQY2uG3pJHQZS-81" target="04F4Gd6JQY2uG3pJHQZS-79">
          <mxGeometry relative="1" as="geometry" />
        </mxCell>
        <mxCell id="04F4Gd6JQY2uG3pJHQZS-81" value="&lt;font style=&quot;font-size: 11.29px;&quot; face=&quot;Calibri&quot;&gt;PortBase-&amp;gt;port = portValue&lt;/font&gt;" style="shape=parallelogram;perimeter=parallelogramPerimeter;rounded=0;whiteSpace=wrap;html=1;fontSize=11.29;fillColor=#e1d5e7;strokeColor=#9673a6;" vertex="1" parent="1">
          <mxGeometry x="495" y="-126" width="125" height="39" as="geometry" />
        </mxCell>
        <mxCell id="04F4Gd6JQY2uG3pJHQZS-82" value="&lt;b&gt;&lt;font style=&quot;font-size: 15px;&quot;&gt;DIO_setPortDir&lt;/font&gt;&lt;/b&gt;" style="rounded=0;whiteSpace=wrap;html=1;strokeColor=#FFFFFF;" vertex="1" parent="1">
          <mxGeometry x="120.75" y="-520" width="120" height="60" as="geometry" />
        </mxCell>
        <mxCell id="04F4Gd6JQY2uG3pJHQZS-83" value="&lt;b&gt;&lt;font style=&quot;font-size: 15px;&quot;&gt;DIO_setPortVal&lt;/font&gt;&lt;/b&gt;" style="rounded=0;whiteSpace=wrap;html=1;strokeColor=#FFFFFF;" vertex="1" parent="1">
          <mxGeometry x="492.5" y="-520" width="120" height="60" as="geometry" />
        </mxCell>
        <mxCell id="04F4Gd6JQY2uG3pJHQZS-84" value="No" style="edgeStyle=orthogonalEdgeStyle;rounded=0;orthogonalLoop=1;jettySize=auto;html=1;" edge="1" parent="1" source="04F4Gd6JQY2uG3pJHQZS-86">
          <mxGeometry relative="1" as="geometry">
            <mxPoint x="83.05882352941171" y="-618" as="targetPoint" />
          </mxGeometry>
        </mxCell>
        <mxCell id="04F4Gd6JQY2uG3pJHQZS-85" value="Yes" style="edgeStyle=orthogonalEdgeStyle;rounded=0;orthogonalLoop=1;jettySize=auto;html=1;" edge="1" parent="1" source="04F4Gd6JQY2uG3pJHQZS-86" target="04F4Gd6JQY2uG3pJHQZS-88">
          <mxGeometry relative="1" as="geometry" />
        </mxCell>
        <mxCell id="04F4Gd6JQY2uG3pJHQZS-86" value="&lt;font face=&quot;Calibri&quot;&gt;pinDir =&amp;nbsp;&lt;br style=&quot;font-size: 11.29px;&quot;&gt;out?&lt;/font&gt;" style="rhombus;whiteSpace=wrap;html=1;fontSize=11.29;fillColor=#fff2cc;strokeColor=#d6b656;" vertex="1" parent="1">
          <mxGeometry x="43" y="-737.5" width="80" height="80" as="geometry" />
        </mxCell>
        <mxCell id="04F4Gd6JQY2uG3pJHQZS-87" style="edgeStyle=orthogonalEdgeStyle;rounded=1;orthogonalLoop=1;jettySize=auto;html=1;exitX=1;exitY=0.5;exitDx=0;exitDy=0;entryX=0.5;entryY=0.5;entryDx=0;entryDy=15;entryPerimeter=0;" edge="1" parent="1" source="04F4Gd6JQY2uG3pJHQZS-88" target="04F4Gd6JQY2uG3pJHQZS-89">
          <mxGeometry relative="1" as="geometry" />
        </mxCell>
        <mxCell id="04F4Gd6JQY2uG3pJHQZS-88" value="&lt;font style=&quot;font-size: 11.29px;&quot; face=&quot;Calibri&quot;&gt;SetBit&lt;br&gt;(PortBase-&amp;gt;ddr, pin)&lt;/font&gt;" style="shape=parallelogram;perimeter=parallelogramPerimeter;rounded=0;whiteSpace=wrap;html=1;fontSize=11.29;fillColor=#d5e8d4;strokeColor=#82b366;size=0;" vertex="1" parent="1">
          <mxGeometry x="171" y="-716.5" width="131" height="39" as="geometry" />
        </mxCell>
        <mxCell id="04F4Gd6JQY2uG3pJHQZS-89" value="&lt;font style=&quot;font-size: 11.29px;&quot;&gt;&lt;font face=&quot;Calibri&quot;&gt;return&lt;br&gt;DIO_OK&lt;/font&gt;&lt;br&gt;&lt;/font&gt;" style="html=1;dashed=0;whiteSpace=wrap;shape=mxgraph.dfd.start;fillColor=#d5e8d4;strokeColor=#82b366;" vertex="1" parent="1">
          <mxGeometry x="312" y="-767" width="80" height="30" as="geometry" />
        </mxCell>
        <mxCell id="04F4Gd6JQY2uG3pJHQZS-90" value="&lt;font style=&quot;font-size: 11.29px;&quot;&gt;&lt;font face=&quot;Calibri&quot;&gt;return&lt;br&gt;DIO_ERROR&lt;/font&gt;&lt;br&gt;&lt;/font&gt;" style="html=1;dashed=0;whiteSpace=wrap;shape=mxgraph.dfd.start;fillColor=#f8cecc;strokeColor=#b85450;" vertex="1" parent="1">
          <mxGeometry x="41.25" y="-618" width="83.5" height="30" as="geometry" />
        </mxCell>
        <mxCell id="04F4Gd6JQY2uG3pJHQZS-91" style="edgeStyle=orthogonalEdgeStyle;rounded=0;orthogonalLoop=1;jettySize=auto;html=1;exitX=0.5;exitY=1;exitDx=0;exitDy=0;entryX=0.5;entryY=0;entryDx=0;entryDy=0;" edge="1" parent="1" source="04F4Gd6JQY2uG3pJHQZS-92" target="04F4Gd6JQY2uG3pJHQZS-97">
          <mxGeometry relative="1" as="geometry" />
        </mxCell>
        <mxCell id="04F4Gd6JQY2uG3pJHQZS-92" value="&lt;font face=&quot;Calibri&quot;&gt;Get port, pin&lt;br style=&quot;font-size: 11.29px;&quot;&gt;&amp;amp; pinDir&lt;/font&gt;" style="shape=parallelogram;perimeter=parallelogramPerimeter;whiteSpace=wrap;html=1;fixedSize=1;fontSize=11.29;fillColor=#d5e8d4;strokeColor=#82b366;size=0;" vertex="1" parent="1">
          <mxGeometry x="455" y="-993" width="110" height="40" as="geometry" />
        </mxCell>
        <mxCell id="04F4Gd6JQY2uG3pJHQZS-93" value="" style="edgeStyle=orthogonalEdgeStyle;rounded=0;orthogonalLoop=1;jettySize=auto;html=1;" edge="1" parent="1" source="04F4Gd6JQY2uG3pJHQZS-94" target="04F4Gd6JQY2uG3pJHQZS-92">
          <mxGeometry relative="1" as="geometry" />
        </mxCell>
        <mxCell id="04F4Gd6JQY2uG3pJHQZS-94" value="&lt;font face=&quot;Calibri&quot; style=&quot;font-size: 11.29px;&quot;&gt;Start&lt;/font&gt;" style="html=1;dashed=0;whiteSpace=wrap;shape=mxgraph.dfd.start;fillColor=#dae8fc;strokeColor=#6c8ebf;" vertex="1" parent="1">
          <mxGeometry x="470" y="-1052" width="80" height="30" as="geometry" />
        </mxCell>
        <mxCell id="04F4Gd6JQY2uG3pJHQZS-95" value="Pass" style="edgeStyle=orthogonalEdgeStyle;rounded=0;orthogonalLoop=1;jettySize=auto;html=1;" edge="1" parent="1" source="04F4Gd6JQY2uG3pJHQZS-97" target="04F4Gd6JQY2uG3pJHQZS-101">
          <mxGeometry relative="1" as="geometry" />
        </mxCell>
        <mxCell id="04F4Gd6JQY2uG3pJHQZS-96" value="Fail" style="edgeStyle=orthogonalEdgeStyle;rounded=0;orthogonalLoop=1;jettySize=auto;html=1;" edge="1" parent="1" source="04F4Gd6JQY2uG3pJHQZS-97" target="04F4Gd6JQY2uG3pJHQZS-98">
          <mxGeometry relative="1" as="geometry" />
        </mxCell>
        <mxCell id="04F4Gd6JQY2uG3pJHQZS-97" value="&lt;font style=&quot;font-size: 11.29px;&quot;&gt;Port &amp;amp; Pin Check&lt;/font&gt;" style="shape=process;whiteSpace=wrap;html=1;backgroundOutline=1;fontSize=11.29;fillColor=#ffe6cc;strokeColor=#d79b00;fontFamily=Calibri;" vertex="1" parent="1">
          <mxGeometry x="452" y="-925" width="116" height="46" as="geometry" />
        </mxCell>
        <mxCell id="04F4Gd6JQY2uG3pJHQZS-98" value="&lt;font style=&quot;font-size: 11.29px;&quot;&gt;&lt;font face=&quot;Calibri&quot;&gt;return&lt;br&gt;DIO_ERROR&lt;/font&gt;&lt;br&gt;&lt;/font&gt;" style="html=1;dashed=0;whiteSpace=wrap;shape=mxgraph.dfd.start;fillColor=#f8cecc;strokeColor=#b85450;" vertex="1" parent="1">
          <mxGeometry x="642" y="-918" width="83.5" height="30" as="geometry" />
        </mxCell>
        <mxCell id="04F4Gd6JQY2uG3pJHQZS-99" value="No" style="edgeStyle=orthogonalEdgeStyle;rounded=0;orthogonalLoop=1;jettySize=auto;html=1;exitX=0.5;exitY=1;exitDx=0;exitDy=0;entryX=0.5;entryY=0;entryDx=0;entryDy=0;" edge="1" parent="1" source="04F4Gd6JQY2uG3pJHQZS-101" target="04F4Gd6JQY2uG3pJHQZS-106">
          <mxGeometry relative="1" as="geometry" />
        </mxCell>
        <mxCell id="04F4Gd6JQY2uG3pJHQZS-100" value="Yes" style="edgeStyle=orthogonalEdgeStyle;rounded=0;orthogonalLoop=1;jettySize=auto;html=1;" edge="1" parent="1" source="04F4Gd6JQY2uG3pJHQZS-101" target="04F4Gd6JQY2uG3pJHQZS-103">
          <mxGeometry relative="1" as="geometry" />
        </mxCell>
        <mxCell id="04F4Gd6JQY2uG3pJHQZS-101" value="&lt;font face=&quot;Calibri&quot;&gt;pinVal =&amp;nbsp;&lt;br style=&quot;font-size: 11.29px;&quot;&gt;low?&lt;/font&gt;" style="rhombus;whiteSpace=wrap;html=1;fontSize=11.29;fillColor=#fff2cc;strokeColor=#d6b656;" vertex="1" parent="1">
          <mxGeometry x="470" y="-840.5" width="80" height="80" as="geometry" />
        </mxCell>
        <mxCell id="04F4Gd6JQY2uG3pJHQZS-102" style="edgeStyle=orthogonalEdgeStyle;rounded=1;orthogonalLoop=1;jettySize=auto;html=1;exitX=1;exitY=0.5;exitDx=0;exitDy=0;entryX=0.5;entryY=0.5;entryDx=0;entryDy=-15;entryPerimeter=0;" edge="1" parent="1" source="04F4Gd6JQY2uG3pJHQZS-103" target="04F4Gd6JQY2uG3pJHQZS-109">
          <mxGeometry relative="1" as="geometry" />
        </mxCell>
        <mxCell id="04F4Gd6JQY2uG3pJHQZS-103" value="&lt;font style=&quot;font-size: 11.29px;&quot; face=&quot;Calibri&quot;&gt;ClrBit&lt;br&gt;(PortBase-&amp;gt;port, pin)&lt;/font&gt;" style="shape=parallelogram;perimeter=parallelogramPerimeter;rounded=0;whiteSpace=wrap;html=1;fontSize=11.29;fillColor=#e1d5e7;strokeColor=#9673a6;" vertex="1" parent="1">
          <mxGeometry x="589" y="-820" width="147" height="39" as="geometry" />
        </mxCell>
        <mxCell id="04F4Gd6JQY2uG3pJHQZS-104" value="No" style="edgeStyle=orthogonalEdgeStyle;rounded=0;orthogonalLoop=1;jettySize=auto;html=1;" edge="1" parent="1" source="04F4Gd6JQY2uG3pJHQZS-106">
          <mxGeometry relative="1" as="geometry">
            <mxPoint x="510.0588235294117" y="-614" as="targetPoint" />
          </mxGeometry>
        </mxCell>
        <mxCell id="04F4Gd6JQY2uG3pJHQZS-105" value="Yes" style="edgeStyle=orthogonalEdgeStyle;rounded=0;orthogonalLoop=1;jettySize=auto;html=1;" edge="1" parent="1" source="04F4Gd6JQY2uG3pJHQZS-106" target="04F4Gd6JQY2uG3pJHQZS-108">
          <mxGeometry relative="1" as="geometry" />
        </mxCell>
        <mxCell id="04F4Gd6JQY2uG3pJHQZS-106" value="&lt;font face=&quot;Calibri&quot;&gt;pinVal =&amp;nbsp;&lt;br style=&quot;font-size: 11.29px;&quot;&gt;high?&lt;/font&gt;" style="rhombus;whiteSpace=wrap;html=1;fontSize=11.29;fillColor=#fff2cc;strokeColor=#d6b656;" vertex="1" parent="1">
          <mxGeometry x="470" y="-733.5" width="80" height="80" as="geometry" />
        </mxCell>
        <mxCell id="04F4Gd6JQY2uG3pJHQZS-107" style="edgeStyle=orthogonalEdgeStyle;rounded=1;orthogonalLoop=1;jettySize=auto;html=1;exitX=1;exitY=0.5;exitDx=0;exitDy=0;entryX=0.5;entryY=0.5;entryDx=0;entryDy=15;entryPerimeter=0;" edge="1" parent="1" source="04F4Gd6JQY2uG3pJHQZS-108" target="04F4Gd6JQY2uG3pJHQZS-109">
          <mxGeometry relative="1" as="geometry" />
        </mxCell>
        <mxCell id="04F4Gd6JQY2uG3pJHQZS-108" value="&lt;font style=&quot;font-size: 11.29px;&quot; face=&quot;Calibri&quot;&gt;SetBit&lt;br&gt;(PortBase-&amp;gt;port, pin)&lt;/font&gt;" style="shape=parallelogram;perimeter=parallelogramPerimeter;rounded=0;whiteSpace=wrap;html=1;fontSize=11.29;fillColor=#e1d5e7;strokeColor=#9673a6;" vertex="1" parent="1">
          <mxGeometry x="589" y="-713.25" width="142" height="39.5" as="geometry" />
        </mxCell>
        <mxCell id="04F4Gd6JQY2uG3pJHQZS-109" value="&lt;font style=&quot;font-size: 11.29px;&quot;&gt;&lt;font face=&quot;Calibri&quot;&gt;return&lt;br&gt;DIO_OK&lt;/font&gt;&lt;br&gt;&lt;/font&gt;" style="html=1;dashed=0;whiteSpace=wrap;shape=mxgraph.dfd.start;fillColor=#d5e8d4;strokeColor=#82b366;" vertex="1" parent="1">
          <mxGeometry x="739" y="-763" width="80" height="30" as="geometry" />
        </mxCell>
        <mxCell id="04F4Gd6JQY2uG3pJHQZS-110" value="&lt;font style=&quot;font-size: 11.29px;&quot;&gt;&lt;font face=&quot;Calibri&quot;&gt;return&lt;br&gt;DIO_ERROR&lt;/font&gt;&lt;br&gt;&lt;/font&gt;" style="html=1;dashed=0;whiteSpace=wrap;shape=mxgraph.dfd.start;fillColor=#f8cecc;strokeColor=#b85450;" vertex="1" parent="1">
          <mxGeometry x="470" y="-616" width="83.5" height="30" as="geometry" />
        </mxCell>
      </root>
    </mxGraphModel>
  </diagram>
</mxfile>
